<svg width="24" height="24" viewBox="0 0 24 24" fill="none" xmlns="http://www.w3.org/2000/svg">
<path d="M5.57112 7.88709C5.28462 6.00009 6.61512 4.30509 8.64762 3.68409C9.0083 3.57381 9.39746 3.6052 9.73581 3.77187C10.0742 3.93853 10.3362 4.22792 10.4686 4.58109L11.1211 6.32109C11.2262 6.60101 11.2452 6.90593 11.1757 7.19672C11.1062 7.48751 10.9514 7.7509 10.7311 7.95309L8.79012 9.73059C8.69444 9.81839 8.62315 9.92948 8.58319 10.053C8.54324 10.1766 8.53598 10.3084 8.56212 10.4356L8.58012 10.5136L8.62662 10.7086C8.86801 11.6561 9.23581 12.5667 9.72012 13.4161C10.2477 14.3186 10.9024 15.1406 11.6641 15.8566L11.7241 15.9106C11.821 15.9966 11.9386 16.056 12.0653 16.0831C12.192 16.1102 12.3235 16.104 12.4471 16.0651L14.9566 15.2746C15.2418 15.185 15.5473 15.1828 15.8338 15.268C16.1203 15.3533 16.3748 15.5222 16.5646 15.7531L17.7526 17.1946C18.2476 17.7946 18.1876 18.6766 17.6191 19.2061C16.0636 20.6566 13.9246 20.9536 12.4366 19.7581C10.6127 18.2868 9.07505 16.4924 7.90062 14.4646C6.71666 12.4383 5.92581 10.2067 5.56962 7.88709H5.57112ZM10.1356 10.5346L11.7436 9.05859C12.1844 8.65439 12.4943 8.12769 12.6335 7.5461C12.7728 6.96451 12.735 6.35457 12.5251 5.79459L11.8741 4.05459C11.6076 3.34396 11.0802 2.76168 10.3993 2.4264C9.71847 2.09111 8.93537 2.02806 8.20962 2.25009C5.68512 3.02259 3.65862 5.28609 4.08762 8.11359C4.38762 10.0876 5.07912 12.5986 6.60462 15.2206C7.87169 17.4071 9.53031 19.3419 11.4976 20.9281C13.7296 22.7206 16.7086 22.1086 18.6436 20.3056C19.1973 19.7901 19.5334 19.0827 19.5833 18.3278C19.6332 17.573 19.3931 16.8275 18.9121 16.2436L17.7241 14.8006C17.3441 14.3393 16.8349 14.0021 16.2619 13.8321C15.6889 13.6621 15.0782 13.6672 14.5081 13.8466L12.4246 14.5021C11.8867 13.9474 11.4155 13.3317 11.0206 12.6676C10.6392 11.9961 10.342 11.2802 10.1356 10.5361V10.5346Z" fill="white"/>
</svg>
