<svg width="26" height="26" viewBox="0 0 26 26" fill="none" xmlns="http://www.w3.org/2000/svg">
<path fill-rule="evenodd" clip-rule="evenodd" d="M1.08325 3.07467C1.08325 2.54658 1.29304 2.04011 1.66645 1.6667C2.03987 1.29328 2.54633 1.0835 3.07442 1.0835H22.9233C23.185 1.08307 23.4442 1.13427 23.6861 1.23415C23.928 1.33404 24.1478 1.48066 24.3329 1.66561C24.5181 1.85057 24.665 2.07022 24.7651 2.31201C24.8653 2.55379 24.9167 2.81296 24.9166 3.07467V22.9235C24.9169 23.1853 24.8655 23.4445 24.7655 23.6864C24.6655 23.9283 24.5188 24.1481 24.3338 24.3333C24.1487 24.5184 23.929 24.6652 23.6872 24.7654C23.4453 24.8655 23.1861 24.917 22.9243 24.9168H3.07442C2.81284 24.9168 2.55383 24.8653 2.31218 24.7652C2.07053 24.665 1.85098 24.5183 1.66607 24.3333C1.48116 24.1482 1.33451 23.9286 1.23451 23.6869C1.13451 23.4452 1.08311 23.1862 1.08325 22.9246V3.07467ZM10.5169 10.1705H13.7442V11.7912C14.21 10.8595 15.4017 10.021 17.1924 10.021C20.6255 10.021 21.4391 11.8767 21.4391 15.2817V21.5888H17.9648V16.0573C17.9648 14.1182 17.499 13.024 16.316 13.024C14.6748 13.024 13.9923 14.2037 13.9923 16.0573V21.5888H10.5169V10.1705ZM4.55859 21.4404H8.03392V10.021H4.55859V21.4393V21.4404ZM8.53117 6.2965C8.53772 6.59406 8.48477 6.88994 8.37543 7.16676C8.26609 7.44358 8.10255 7.69577 7.89442 7.90853C7.68629 8.1213 7.43776 8.29034 7.16341 8.40576C6.88906 8.52117 6.59443 8.58062 6.29679 8.58062C5.99916 8.58062 5.70452 8.52117 5.43018 8.40576C5.15583 8.29034 4.9073 8.1213 4.69917 7.90853C4.49104 7.69577 4.3275 7.44358 4.21816 7.16676C4.10882 6.88994 4.05587 6.59406 4.06242 6.2965C4.07528 5.71242 4.31634 5.15661 4.73396 4.74808C5.15159 4.33955 5.71258 4.11078 6.29679 4.11078C6.88101 4.11078 7.442 4.33955 7.85963 4.74808C8.27725 5.15661 8.51831 5.71242 8.53117 6.2965Z" fill="white"/>
</svg>
