<svg width="20" height="24" viewBox="0 0 20 24" fill="none" xmlns="http://www.w3.org/2000/svg">
<path d="M10.0001 11.9999C10.6417 11.9999 11.1912 11.7713 11.6486 11.3139C12.1051 10.8574 12.3334 10.3083 12.3334 9.66659C12.3334 9.02492 12.1051 8.47542 11.6486 8.01809C11.1912 7.56153 10.6417 7.33325 10.0001 7.33325C9.35841 7.33325 8.8093 7.56153 8.35275 8.01809C7.89541 8.47542 7.66675 9.02492 7.66675 9.66659C7.66675 10.3083 7.89541 10.8574 8.35275 11.3139C8.8093 11.7713 9.35841 11.9999 10.0001 11.9999ZM10.0001 23.6666C6.86953 21.0027 4.53153 18.5282 2.98608 16.2431C1.43986 13.9588 0.666748 11.8444 0.666748 9.89992C0.666748 6.98325 1.60514 4.65964 3.48191 2.92909C5.35791 1.19853 7.53064 0.333252 10.0001 0.333252C12.4695 0.333252 14.6422 1.19853 16.5182 2.92909C18.395 4.65964 19.3334 6.98325 19.3334 9.89992C19.3334 11.8444 18.5607 13.9588 17.0152 16.2431C15.469 18.5282 13.1306 21.0027 10.0001 23.6666Z" fill="#0E2D52"/>
</svg>
