<svg width="24" height="20" viewBox="0 0 24 20" fill="none" xmlns="http://www.w3.org/2000/svg">
<path d="M21.3333 5.33341L11.9999 11.1667L2.66659 5.33341V3.00008L11.9999 8.83341L21.3333 3.00008M21.3333 0.666748H2.66659C1.37159 0.666748 0.333252 1.70508 0.333252 3.00008V17.0001C0.333252 17.6189 0.579085 18.2124 1.01667 18.65C1.45425 19.0876 2.04775 19.3334 2.66659 19.3334H21.3333C21.9521 19.3334 22.5456 19.0876 22.9832 18.65C23.4208 18.2124 23.6666 17.6189 23.6666 17.0001V3.00008C23.6666 2.38124 23.4208 1.78775 22.9832 1.35017C22.5456 0.912581 21.9521 0.666748 21.3333 0.666748Z" fill="#0E2D52"/>
</svg>
