<svg width="22" height="22" viewBox="0 0 22 22" fill="none" xmlns="http://www.w3.org/2000/svg">
<path d="M4.72334 9.58833L7.29 7.02167C7.61667 6.695 7.71 6.24 7.58167 5.83167C7.15 4.525 6.91667 3.125 6.91667 1.66667C6.91667 1.025 6.39167 0.5 5.75 0.5H1.66667C1.025 0.5 0.5 1.025 0.5 1.66667C0.5 12.6217 9.37833 21.5 20.3333 21.5C20.975 21.5 21.5 20.975 21.5 20.3333V16.2617C21.5 15.62 20.975 15.095 20.3333 15.095C18.8867 15.095 17.475 14.8617 16.1683 14.43C15.76 14.29 15.2933 14.395 14.9783 14.71L12.4117 17.2767C9.11 15.585 6.40333 12.89 4.72334 9.58833Z" fill="#0E2D52"/>
</svg>
