<svg width="15" height="12" viewBox="0 0 15 12" fill="none" xmlns="http://www.w3.org/2000/svg">
<path d="M6.96875 0V3C6.96875 3.9375 6.80469 4.92969 6.47656 5.97656C6.16406 7.00781 5.70312 8.00781 5.09375 8.97656C4.48438 9.92969 3.75 10.7656 2.89062 11.4844L0.40625 9.77344C1.14062 8.74219 1.69531 7.6875 2.07031 6.60938C2.46094 5.51562 2.65625 4.33594 2.65625 3.07031V0H6.96875ZM14.1641 0V3C14.1641 3.9375 14 4.92969 13.6719 5.97656C13.3594 7.00781 12.8984 8.00781 12.2891 8.97656C11.6797 9.92969 10.9453 10.7656 10.0859 11.4844L7.60156 9.77344C8.33594 8.74219 8.89062 7.6875 9.26562 6.60938C9.65625 5.51562 9.85156 4.33594 9.85156 3.07031V0H14.1641Z" fill="#66B6D4"/>
</svg>
