<svg width="21" height="18" viewBox="0 0 21 18" fill="none" xmlns="http://www.w3.org/2000/svg">
<path d="M1.60962 17.3999L20.2696 9.9199C20.4625 9.84306 20.627 9.71488 20.7426 9.5513C20.8582 9.38773 20.9198 9.19598 20.9198 8.9999C20.9198 8.80383 20.8582 8.61208 20.7426 8.4485C20.627 8.28493 20.4625 8.15675 20.2696 8.0799L1.60962 0.599903C1.44805 0.533998 1.27147 0.506746 1.09581 0.520606C0.920162 0.534467 0.750962 0.589003 0.60348 0.679295C0.455998 0.769587 0.334873 0.892795 0.251033 1.0378C0.167193 1.18281 0.123275 1.34506 0.123242 1.5099L0.112549 6.1199C0.112549 6.6199 0.508204 7.0499 1.04287 7.1099L16.1526 8.9999L1.04287 10.8799C0.508204 10.9499 0.112549 11.3799 0.112549 11.8799L0.123242 16.4899C0.123242 17.1999 0.903859 17.6899 1.60962 17.3999V17.3999Z" fill="white"/>
</svg>
